Genre: Horror | Thriller
Language:English
IMDb:http://www.imdb.com/title/tt1634121/
Source:26K Thanks!
Encoder:Tony

Format : AVI
Format/Info : Audio Video Interleave
File size : 1.05 GiB
Duration : 1h 34mn
Overall bit rate : 1 585 Kbps

Video
ID : 0
Format : MPEG-4 Visual
Format profile : Advanced Simple@L5
Format settings, BVOP : 2
Format settings, QPel : No
Format settings, GMC : No warppoints
Format settings, Matrix : Default (H.263)
Muxing mode : Packed bitstream
Codec ID : XVID
Codec ID/Hint : XviD
Duration : 1h 34mn
Bit rate : 1 255 Kbps
Width : 720 pixels
Height : 304 pixels
Display aspect ratio : 2.35:1
Frame rate : 25.000 fps
Color space : YUV
Chroma subsampling : 4:2:0
Bit depth : 8 bits
Scan type : Progressive
Compression mode : Lossy
Bits/(Pixel*Frame) : 0.229
Stream size : 848 MiB (79%)
Writing library : XviD 64

Audio
ID : 1
Format : AC-3
Format/Info : Audio Coding 3
Mode extension : CM (complete main)
Codec ID : 2000
Duration : 1h 34mn
Bit rate mode : Constant
Bit rate : 320 Kbps
Channel(s) : 2 channels
Channel positions : Front: L R
Sampling rate : 48.0 KHz
Bit depth : 16 bits
Compression mode : Lossy
Delay relative to video : 350ms
Stream size : 216 MiB (20%)
Alignment : Split accross interleaves
Interleave, duration : 40 ms (1.00 video frame)
Interleave, preload duration : 500 ms


Plot:
Two children living in different countries are visited nightly by a faceless being who wants to take possession of them.

 
http://img705.imageshack.us/img705/4549/vlcsnap2012022516h19m27.png
 
http://img196.imageshack.us/img196/8397/vlcsnap2012022516h19m36.png
 
http://img528.imageshack.us/img528/1686/vlcsnap2012022516h19m50.png
 
http://img263.imageshack.us/img263/7049/vlcsnap2012022516h21m16.png